<svg id="Layer_1"
     data-name="Layer 1"
     xmlns="http://www.w3.org/2000/svg"
     viewBox="0 0 128 128">
    <defs>
        <style>
            .cls-1 {
                fill: #c84e75;
            }

            .cls-2 {
                fill: #ed6c67;
            }

            .cls-3 {
                fill: #ffdd6b;
            }

            .cls-4 {
                fill: #b3d179;
            }

            .cls-5 {
                fill: #52b1e4;
            }

            .cls-6 {
                fill: #3f63ac;
            }

            .cls-7 {
                fill: #6f5ba4;
            }

            .cls-8 {
                fill: #e86da6;
            }
        </style>
    </defs>
    <path class="cls-1"
          d="M112.56,103.65A26.82,26.82,0,0,0,115,92.78a19.29,19.29,0,0,0-.17-2.3.78.78,0,0,0,0-.16,26.83,26.83,0,0,1-6.11,1.54,32.22,32.22,0,0,1-8.49,0A45.59,45.59,0,0,1,87,87.8a75,75,0,0,1-13.73-8.49c-2.68-2-5.42-4.38-8.14-6.92l-.77-.72-.51-.48-.46-.44a7.61,7.61,0,0,1-1.93-.61v0c0,.19,0,.37,0,.55.13,3.68.42,7.22.86,10.52a72,72,0,0,0,3.56,15.16A43,43,0,0,0,72,107.86a26.26,26.26,0,0,0,11.58,9A21.65,21.65,0,0,0,88.37,118a21.42,21.42,0,0,0,10-1A24.13,24.13,0,0,0,112.56,103.65Z"
          transform="translate(0 0)" />
    <path class="cls-2"
          d="M120.26,48.18a18.74,18.74,0,0,0-1.59-1.4,26.64,26.64,0,0,1-3.22,5.33,32.09,32.09,0,0,1-6,5.92A45.3,45.3,0,0,1,97.3,64.51a74.45,74.45,0,0,1-15.7,3.7c-3.41.46-7,.75-10.84.88l-.56,0h-.65A7.54,7.54,0,0,1,67,70.51c2.65,2.47,5.32,4.74,7.92,6.73a72,72,0,0,0,13.24,8.19,43.15,43.15,0,0,0,12.41,3.79,32.31,32.31,0,0,0,4.22.29,24.66,24.66,0,0,0,10.48-2.21,21.77,21.77,0,0,0,4-2.43,21.46,21.46,0,0,0,6.37-7.81h0a24.1,24.1,0,0,0,.56-19.47A26.62,26.62,0,0,0,120.26,48.18Z"
          transform="translate(0 0)" />
    <path class="cls-3"
          d="M117,29.61a24.13,24.13,0,0,0-13.37-14.17A26.82,26.82,0,0,0,92.78,13a19.29,19.29,0,0,0-2.3.17h0A27.38,27.38,0,0,1,92,19.28a32.37,32.37,0,0,1,0,8.51A45.59,45.59,0,0,1,88,41a74.49,74.49,0,0,1-8.49,13.73c-2,2.66-4.34,5.38-6.85,8.08a4,4,0,0,0-.28.3v.16a7.64,7.64,0,0,1-.71,3.21c3.36-.14,6.59-.41,9.62-.82a72,72,0,0,0,15.16-3.56A43,43,0,0,0,107.86,56a26.22,26.22,0,0,0,9-11.65A22.3,22.3,0,0,0,118,39.63h0A21.42,21.42,0,0,0,117,29.61Z"
          transform="translate(0 0)" />
    <path class="cls-4"
          d="M85,8.71a21.46,21.46,0,0,0-7.81-6.37,24.1,24.1,0,0,0-19.47-.56,26.62,26.62,0,0,0-9.41,6A18.71,18.71,0,0,0,47,9.32a26.8,26.8,0,0,1,5.36,3.21,32.26,32.26,0,0,1,5.93,6A45.3,45.3,0,0,1,64.72,30.7a74.45,74.45,0,0,1,3.7,15.7c.45,3.37.74,7,.87,10.69v0A7.64,7.64,0,0,1,71.61,60c2.11-2.31,4-4.63,5.79-6.9a72,72,0,0,0,8.19-13.24,43.06,43.06,0,0,0,3.79-12.41h0a26.1,26.1,0,0,0-1.94-14.73A22,22,0,0,0,85,8.71Z"
          transform="translate(0 0)" />
    <path class="cls-5"
          d="M56.17,20.14a26.32,26.32,0,0,0-11.69-9A22.52,22.52,0,0,0,39.84,10a21.42,21.42,0,0,0-10,1A24.13,24.13,0,0,0,15.65,24.35a26.82,26.82,0,0,0-2.44,10.87,19.1,19.1,0,0,0,.15,2.16,26.48,26.48,0,0,1,6-1.49,32.42,32.42,0,0,1,8.4.06A45.59,45.59,0,0,1,41,40a74.64,74.64,0,0,1,13.72,8.49c2.72,2.08,5.49,4.43,8.24,7l.33.3a8,8,0,0,1,1.47-.14,7.63,7.63,0,0,1,1.91.24c-.15-3.17-.41-6.22-.8-9.1a71.82,71.82,0,0,0-3.56-15.16A43,43,0,0,0,56.17,20.14Z"
          transform="translate(0 0)" />
    <path class="cls-6"
          d="M39.86,42.33a43.15,43.15,0,0,0-12.41-3.79,32.31,32.31,0,0,0-4.22-.29A24.75,24.75,0,0,0,12.88,40.4a22.22,22.22,0,0,0-4.17,2.49A21.46,21.46,0,0,0,2.34,50.7a24.1,24.1,0,0,0-.56,19.47,26.74,26.74,0,0,0,6,9.41c.44.42.87.81,1.33,1.18a26.46,26.46,0,0,1,3.33-5.5,32.23,32.23,0,0,1,6.28-6A45.85,45.85,0,0,1,30.93,63a75.14,75.14,0,0,1,15.76-3.42c3.38-.39,7-.62,10.74-.69h1.06a7.65,7.65,0,0,1,2.08-2c-2.5-2.3-5-4.42-7.47-6.31A72,72,0,0,0,39.86,42.33Z"
          transform="translate(0 0)" />
    <path class="cls-7"
          d="M47,62.13a72.57,72.57,0,0,0-15.21,3.3,43.12,43.12,0,0,0-11.56,5.9,26.1,26.1,0,0,0-9.37,11.93,22.19,22.19,0,0,0-1.09,4.22,21.45,21.45,0,0,0,.84,10,24.12,24.12,0,0,0,13.13,14.39,26.65,26.65,0,0,0,10.82,2.64,19.75,19.75,0,0,0,2.31-.13l.55-.07A27.45,27.45,0,0,1,36,108.42a32.33,32.33,0,0,1,.09-8.21A45.59,45.59,0,0,1,40.1,87a74.64,74.64,0,0,1,8.49-13.72c2.09-2.73,4.46-5.52,7-8.29.48-.51,1-1,1.47-1.54,0-.09,0-.17,0-.26a7.43,7.43,0,0,1,.21-1.76C53.7,61.54,50.23,61.76,47,62.13Z"
          transform="translate(0 0)" />
    <path class="cls-8"
          d="M58.91,70.82c0-.19,0-.37,0-.56s0-.26,0-.4v-.64c0-.12,0-.25,0-.37v0c0-.24,0-.48,0-.72a7.67,7.67,0,0,1-1-1.59l-.29.3C55,69.52,52.7,72.24,50.66,74.9a72,72,0,0,0-8.19,13.24,43.15,43.15,0,0,0-3.79,12.41,26.4,26.4,0,0,0,1.73,14.27A21.73,21.73,0,0,0,43,119.29a21.46,21.46,0,0,0,7.81,6.37,24.1,24.1,0,0,0,19.47.56,26.74,26.74,0,0,0,9.41-6,19.59,19.59,0,0,0,1.42-1.64,27,27,0,0,1-5.29-3.2,32.4,32.4,0,0,1-5.88-6A45.3,45.3,0,0,1,63.49,97.3a74.45,74.45,0,0,1-3.7-15.7C59.34,78.22,59,74.59,58.91,70.82Z"
          transform="translate(0 0)" />
</svg>